# xmcd
#
# Track frame offsets:
#	150
#	18891
#	36143
#	60136
#	75902
#	93166
#	107179
#	121400
#	137717
#	155745
#
# Disc length: 2368 seconds
# Revision: 0
# Processed by: cddbd v1.5.2PL0 Copyright (c) Steve Scherf et al.
# Submitted via: dBpowerAMP V12.0
#
DISCID=6e093e0a
DTITLE=The Simon Kennedy Band - Make Up Your Mind
DYEAR=2014
DGENRE=Blues
TTITLE0=The King Shows You Who's Boss
TTITLE1=Lord I Pray
TTITLE2=Give Me A Break
TTITLE3=Don't Let Them Turn You Around
TTITLE4=I Ain't Opening The Door
TTITLE5=Keep Me Keeping On
TTITLE6=Show Them It's True
TTITLE7=Hands On The Wheel
TTITLE8=End Of The Sunrise
TTITLE9=Make Up Your Mind
EXTD=
EXTT0=
EXTT1=
EXTT2=
EXTT3=
EXTT4=
EXTT5=
EXTT6=
EXTT7=
EXTT8=
EXTT9=
PLAYORDER=
